<?xml version="1.0" standalone="no"?><!DOCTYPE svg PUBLIC "-//W3C//DTD SVG 1.1//EN" "http://www.w3.org/Graphics/SVG/1.1/DTD/svg11.dtd"><svg t="1619054808997" class="icon" viewBox="0 0 1024 1024" version="1.1" xmlns="http://www.w3.org/2000/svg" p-id="1139" xmlns:xlink="http://www.w3.org/1999/xlink" width="200" height="200"><defs><style type="text/css"></style></defs><path d="M625.792 768H341.312v142.208h-256v56.96h796.48v-56.96h-256V768z m261.696-768H79.616C36.992 0 0 34.112 0 79.616v526.272c0 42.624 36.992 79.616 79.616 79.616h804.992c45.504 0 79.68-34.112 79.68-79.616V79.616C967.04 34.176 930.112 0 887.488 0z m25.6 603.008c0 14.208-11.392 25.6-25.6 25.6H79.616a25.472 25.472 0 0 1-25.6-25.6V79.616c0-14.208 11.392-25.6 25.6-25.6h804.992c14.208 0 25.6 11.392 25.6 25.6v523.392h2.88zM588.8 420.992c22.784-25.6 36.992-56.96 36.992-93.888h-56.96a83.84 83.84 0 0 1-85.248 85.312 83.84 83.84 0 0 1-85.376-85.312 83.84 83.84 0 0 1 85.376-85.312v-56.96c-36.992 0-71.168 14.272-96.768 39.872L275.904 113.792h-153.6v56.896h130.88l102.4 102.4a123.264 123.264 0 0 0-11.392 54.016A140.8 140.8 0 0 0 486.4 469.312c22.784 0 42.688-5.696 59.712-14.208l113.792 113.792h176.384V512H685.44L588.8 420.992z m-466.496-108.16h142.208v56.96H122.304v-56.96z m0 199.168h170.688v56.896H122.24V512z m455.104-338.496c-5.696-2.816-11.392-2.816-14.208-2.816-31.296 0-56.896 25.6-56.896 56.896 0 31.232 25.6 56.832 56.896 56.832s56.896-25.6 56.896-56.832c0-5.76 0-8.576-2.88-14.272l42.688-42.624h173.504v-56.96H637.184l-59.776 59.776z" p-id="1140"></path></svg>