<?xml version="1.0" standalone="no"?><!DOCTYPE svg PUBLIC "-//W3C//DTD SVG 1.1//EN" "http://www.w3.org/Graphics/SVG/1.1/DTD/svg11.dtd"><svg t="1607931243666" class="icon" viewBox="0 0 1024 1024" version="1.1" xmlns="http://www.w3.org/2000/svg" p-id="2570" xmlns:xlink="http://www.w3.org/1999/xlink" width="200" height="200"><defs><style type="text/css"></style></defs><path d="M90.584615 578.953846l358.4-106.338461 141.784616 196.923077 330.830769-319.015385V866.461538H90.584615z" fill="#3FA06D" opacity=".5" p-id="2571"></path><path d="M929.476923 886.153846c-11.815385 0-19.692308-7.876923-19.692308-19.692308V252.061538L689.230769 157.538462 307.2 389.907692c-7.876923 3.938462-11.815385 3.938462-19.692308 3.938462L98.461538 322.953846V866.461538c0 11.815385-7.876923 19.692308-19.692307 19.692308s-19.692308-7.876923-19.692308-19.692308V295.384615c0-7.876923 3.938462-11.815385 7.876923-15.753846 3.938462-3.938462 11.815385-3.938462 19.692308-3.938461l208.738461 74.830769L681.353846 118.153846h15.753846l240.246154 102.4c7.876923 3.938462 11.815385 11.815385 11.815385 19.692308V866.461538c0 11.815385-7.876923 19.692308-19.692308 19.692308z" fill="#2F2F2F" p-id="2572"></path><path d="M929.476923 866.461538c-11.815385 0-19.692308-7.876923-19.692308-19.692307V378.092308l-315.076923 326.892307c-3.938462 3.938462-11.815385 7.876923-15.753846 7.876923-7.876923 0-11.815385-3.938462-15.753846-7.876923L433.230769 492.307692l-338.707692 82.707693v275.692307c3.938462 7.876923-3.938462 15.753846-15.753846 15.753846s-19.692308-7.876923-19.692308-19.692307v-287.507693c0-7.876923 7.876923-15.753846 15.753846-19.692307l370.215385-90.584616c7.876923-3.938462 15.753846 0 19.692308 7.876923l122.092307 204.8 330.830769-342.646153c3.938462-3.938462 15.753846-7.876923 19.692308-3.938462 7.876923 0 11.815385 7.876923 11.815385 15.753846v515.938462c0 11.815385-7.876923 19.692308-19.692308 19.692307z" fill="#3FA06D" p-id="2573"></path><path d="M957.046154 894.030769h-905.846154c-11.815385 0-19.692308-7.876923-19.692308-19.692307s7.876923-19.692308 19.692308-19.692308h905.846154c11.815385 0 19.692308 7.876923 19.692308 19.692308s-7.876923 19.692308-19.692308 19.692307z" fill="#2F2F2F" p-id="2574"></path></svg>