<?xml version="1.0" standalone="no"?><!DOCTYPE svg PUBLIC "-//W3C//DTD SVG 1.1//EN" "http://www.w3.org/Graphics/SVG/1.1/DTD/svg11.dtd"><svg t="1651068259546" class="icon" viewBox="0 0 1024 1024" version="1.1" xmlns="http://www.w3.org/2000/svg" p-id="21483" xmlns:xlink="http://www.w3.org/1999/xlink" width="400" height="400"><defs><style type="text/css">@font-face { font-family: feedback-iconfont; src: url("//at.alicdn.com/t/font_1031158_u69w8yhxdu.woff2?t=1630033759944") format("woff2"), url("//at.alicdn.com/t/font_1031158_u69w8yhxdu.woff?t=1630033759944") format("woff"), url("//at.alicdn.com/t/font_1031158_u69w8yhxdu.ttf?t=1630033759944") format("truetype"); }
</style></defs><path d="M476.398933 182.254933c-38.058667 0-69.034667 31.6416-69.0688 70.536534 0 19.0976 7.424 37.034667 20.9408 50.568533a71.2192 71.2192 0 0 0 50.688 20.992 71.714133 71.714133 0 0 0 71.68-71.458133 71.799467 71.799467 0 0 0-57.207466-70.109867l-17.032534-0.529067z m-92.945066 335.701334l9.454933 3.003733c27.648 8.840533 56.541867 13.346133 85.845333 13.380267 32.494933 0 64.2048-5.393067 94.344534-15.9744l9.352533-3.293867-69.5296-161.1776-7.338667 1.467733a108.066133 108.066133 0 0 1-26.589866 3.362134 108.714667 108.714667 0 0 1-22.715734-2.491734l-7.68-1.6896-65.143466 163.413334zM310.203733 672.4608a17.3056 17.3056 0 0 1-15.803733-10.410667 16.9984 16.9984 0 0 1-0.170667-13.1584l123.221334-309.0944-4.693334-4.317866c-25.736533-20.8896-39.850667-50.670933-39.799466-82.722134A105.9328 105.9328 0 0 1 444.433067 152.7808l6.144-2.133333 0.648533-53.2992a27.767467 27.767467 0 0 1 55.534933 0.034133v52.753067l5.802667 2.304c43.895467 14.8992 72.4992 55.0912 72.465067 100.471466a105.8816 105.8816 0 0 1-36.2496 79.5136l-5.051734 4.420267 69.888 163.669333 9.096534-5.393066a283.921067 283.921067 0 0 0 60.740266-48.469334c3.259733-3.413333 7.68-5.290667 12.458667-5.290666a17.186133 17.186133 0 0 1 12.4928 29.013333 320.256 320.256 0 0 1-73.250133 57.344l-7.150934 4.0448 47.36 111.854933a17.066667 17.066667 0 0 1 0.136534 13.141334 16.861867 16.861867 0 0 1-9.181867 9.386666 17.271467 17.271467 0 0 1-22.613333-8.977066l-47.4112-109.943467-7.8336 2.218667a317.883733 317.883733 0 0 1-109.4144 19.217066 316.586667 316.586667 0 0 1-99.208534-15.906133l-8.226133-2.730667-45.4656 111.616a16.9984 16.9984 0 0 1-15.940267 10.820267z" fill="#20A4F9" p-id="21484"></path><path d="M104.840533 887.4496l795.4944 0.938667-0.119466-153.429334-34.8672-0.238933 0.119466 83.524267-37.085866-0.0512-0.119467-83.268267-50.568533-0.221867 0.119466 83.541334-37.0688-0.0512-0.136533-83.268267-50.517333-0.221867 0.1024 83.541334-37.239467-0.0512 0.034133-83.268267-50.551466-0.221867 0.1024 83.541334-37.0688-0.0512-0.119467-83.268267-50.551467-0.221867-0.017066 83.541334-36.9664-0.0512-0.119467-83.268267-50.5344-0.221867 0.1024 83.541334-37.102933-0.0512-0.136534-83.268267-50.517333-0.221867 0.136533 83.541334-37.290666-0.0512 0.017066-83.268267-50.500266-0.221867 0.119466 83.541334-37.12-0.0512-0.1024-83.268267-50.5344-0.221867-0.017066 83.541334-36.983467-0.0512-0.085333-83.285334-22.306134-0.221866v152.746666zM68.266667 924.484267L68.7104 696.968533 938.376533 697.941333l0.256 226.542934H68.266667z" fill="#20A4F9" p-id="21485"></path></svg>