<?xml version="1.0" standalone="no"?><!DOCTYPE svg PUBLIC "-//W3C//DTD SVG 1.1//EN" "http://www.w3.org/Graphics/SVG/1.1/DTD/svg11.dtd"><svg t="1577521242051" class="icon" viewBox="0 0 1024 1024" version="1.1" xmlns="http://www.w3.org/2000/svg" p-id="10935" xmlns:xlink="http://www.w3.org/1999/xlink" width="200" height="200"><defs><style type="text/css"></style></defs><path d="M210.816 612.096c8.832 0 15.872-8.32 15.872-18.432v-52.736c0-10.24-7.168-18.432-15.872-18.432s-15.872 8.32-15.872 18.432v52.736c0 10.112 7.168 18.432 15.872 18.432zM263.808 612.096c8.832 0 15.872-8.32 15.872-18.432v-52.736c0-10.24-7.168-18.432-15.872-18.432-8.832 0-15.872 8.32-15.872 18.432v52.736c0 10.112 7.04 18.432 15.872 18.432zM480.896 612.096c8.832 0 15.872-8.32 15.872-18.432v-52.736c0-10.24-7.168-18.432-15.872-18.432-8.704 0-15.872 8.32-15.872 18.432v52.736c-0.128 10.112 7.04 18.432 15.872 18.432zM533.76 612.096c8.704 0 15.872-8.32 15.872-18.432v-52.736c0-10.24-7.168-18.432-15.872-18.432-8.832 0-15.872 8.32-15.872 18.432v52.736c0 10.112 7.168 18.432 15.872 18.432zM750.848 612.096c8.704 0 15.872-8.32 15.872-18.432v-52.736c0-10.24-7.168-18.432-15.872-18.432-8.832 0-15.872 8.32-15.872 18.432v52.736c0 10.112 7.04 18.432 15.872 18.432zM803.712 612.096c8.832 0 15.872-8.32 15.872-18.432v-52.736c0-10.24-7.168-18.432-15.872-18.432-8.704 0-15.872 8.32-15.872 18.432v52.736c0 10.112 7.168 18.432 15.872 18.432z" p-id="10936"></path><path d="M1007.36 651.392c0.384-1.92 0.768-3.84 0.768-6.016V494.592c0-2.56-0.256-4.992-0.64-7.552h0.64l-1.536-4.224c-0.896-3.712-2.304-7.168-3.968-10.496l-63.36-166.144c-5.376-26.112-17.92-43.136-32-43.136H109.056c-15.104 0-28.416 19.584-32.896 48.384L23.296 487.168h0.64c-0.384 2.432-0.64 4.864-0.64 7.552v146.304l-19.84 65.28c0 14.336 9.856 25.984 21.888 25.984h976.768c12.032 0 21.888-11.648 21.888-25.984l-16.64-54.912zM819.712 302.592c4.608 0 8.192 1.024 10.624 1.92v37.504H724.48V304.64c2.432-1.024 5.888-1.92 10.624-1.92h84.608z m-270.08 0c4.608 0 8.192 1.024 10.624 1.92v37.504H454.4V304.64c2.432-1.024 5.888-1.92 10.624-1.92h84.608z m-269.952 0c4.608 0 8.192 1.024 10.624 1.92v37.504H184.32V304.64c2.432-1.024 5.888-1.92 10.624-1.92h84.736z m-174.08 23.68c0.768-2.304 1.28-4.736 1.664-7.168 1.408-8.832 3.712-14.08 5.248-16.512h40.064V381.44h169.472V302.592h100.608V381.44h169.472V302.592h100.608V381.44h169.344V302.592H903.68c1.28 2.048 3.2 6.4 4.608 13.312 0.64 2.816 1.408 5.632 2.56 8.32l45.312 123.392H70.528l35.072-121.344zM972.8 487.168c2.048 1.792 3.456 4.352 3.456 7.552v141.056H55.168V494.592c0-3.072 1.408-5.76 3.456-7.552H972.8zM33.792 696.064l8.704-25.984c1.28 0.256 2.56 0.384 3.84 0.384h938.752l8.576 25.6H33.792z" p-id="10937"></path></svg>