<?xml version="1.0" standalone="no"?><!DOCTYPE svg PUBLIC "-//W3C//DTD SVG 1.1//EN" "http://www.w3.org/Graphics/SVG/1.1/DTD/svg11.dtd"><svg t="1651067796513" class="icon" viewBox="0 0 1024 1024" version="1.1" xmlns="http://www.w3.org/2000/svg" p-id="15469" width="400" height="400" xmlns:xlink="http://www.w3.org/1999/xlink"><defs><style type="text/css">@font-face { font-family: feedback-iconfont; src: url("//at.alicdn.com/t/font_1031158_u69w8yhxdu.woff2?t=1630033759944") format("woff2"), url("//at.alicdn.com/t/font_1031158_u69w8yhxdu.woff?t=1630033759944") format("woff"), url("//at.alicdn.com/t/font_1031158_u69w8yhxdu.ttf?t=1630033759944") format("truetype"); }
</style></defs>
<path d="M512 512m-494.933333 0a494.933333 494.933333 0 1 0 989.866666 0 494.933333 494.933333 0 1 0-989.866666 0Z" fill="#5292FF" fill-opacity=".06" p-id="15470"></path>
<path d="M512 512m-512 0a512 512 0 1 0 1024 0 512 512 0 1 0-1024 0Z" fill="#F5F9FF" p-id="15471" data-spm-anchor-id="a313x.7781069.0.i4" class="selected"></path>
<!-- <path d="M512 0c282.760533 0 512 229.239467 512 512 0 282.760533-229.239467 512-512 512-282.760533 0-512-229.239467-512-512C0 229.239467 229.239467 0 512 0z m0 34.133333C248.081067 34.133333 34.133333 248.081067 34.133333 512s213.947733 477.866667 477.866667 477.866667 477.866667-213.947733 477.866667-477.866667S775.918933 34.133333 512 34.133333z" fill="#5292FF" p-id="15472" data-spm-anchor-id="a313x.7781069.0.i5" class=""></path> -->
<path d="M554.734933 515.618133a46.865067 46.865067 0 1 0-93.764266 0 46.865067 46.865067 0 1 0 93.764266 0z" fill="#5292FF" p-id="15473"></path>
<path d="M508.689067 194.935467l0.4096-0.4096 16.247466 0.2048 25.258667 1.262933v177.117867l3.140267 0.9216c10.990933 3.584 21.538133 8.430933 31.402666 14.4384l7.7824 5.12 115.6096-125.474134 12.561067 11.5712a323.549867 323.549867 0 0 1 104.448 236.817067l-0.1024 3.959467 0.477867 0.546133-0.785067 16.622933-0.648533 8.362667-1.365334 15.5648h-17.749333l-154.453333-4.539733-0.955734 3.515733a148.48 148.48 0 0 1-10.683733 25.429333l-4.573867 7.9872-1.1264 1.6384 129.194667 112.2304-11.1616 12.9024a322.389333 322.389333 0 0 1-243.848533 111.377067 164.352 164.352 0 0 1-13.175467 0l-22.289067-1.024-0.034133-170.632533-1.8432-0.375467a148.309333 148.309333 0 0 1-31.300267-12.049067l-7.3728-4.096-0.9216-0.6144-118.9888 131.959467-12.6976-11.6736a323.4816 323.4816 0 0 1-104.448-236.4416l0.136534-10.752c0-4.471467 0.1024-8.704 0.375466-12.936533l0.512-6.382934 1.467734-15.428266h17.646933l147.012267 4.3008 0.273066-1.4336c3.720533-17.134933 10.410667-33.450667 19.7632-48.162134l4.881067-7.236266-126.634667-110.011734 11.1616-12.9024a322.833067 322.833067 0 0 1 233.813334-111.240533l3.584-0.034133z m7.7824 205.4144V228.932267h-0.648534a288.733867 288.733867 0 0 0-196.983466 77.141333l-7.509334 7.202133-2.6624 2.7648 126.190934 109.602134-11.844267 12.936533a114.3808 114.3808 0 0 0-28.535467 58.299733l-1.058133 8.192-1.536 15.940267-162.952533-4.8128v0.682667a289.553067 289.553067 0 0 0 71.509333 199.202133l6.9632 7.68 2.525867 2.594133 116.053333-128.580266 12.4928 9.557333c13.6192 10.3424 29.354667 17.5104 46.08 20.957867l7.168 1.262933 14.677333 2.048v166.365867h0.682667a288.733867 288.733867 0 0 0 196.983467-77.141334l7.509333-7.168 2.628267-2.798933-127.044267-110.3872 10.274133-12.8c10.24-12.731733 17.578667-27.477333 21.640534-43.2128l1.706666-7.953067 2.628267-14.4384 167.799467 4.881067 0.034133-0.682667a289.348267 289.348267 0 0 0-71.441067-199.0656l-6.9632-7.714133-2.696533-2.7648-114.0736 123.904-12.526933-11.093333a114.449067 114.449067 0 0 0-45.9776-24.712534l-7.3728-1.706666-13.7216-2.730667z m-8.635734 12.765866a102.741333 102.741333 0 1 1 0 205.482667 102.7072 102.7072 0 0 1-102.741333-102.741333 102.7072 102.7072 0 0 1 102.741333-102.741334z m0 34.133334c-37.956267 0.034133-68.642133 30.72-68.608 68.608a68.573867 68.573867 0 0 0 68.608 68.608 68.608 68.608 0 1 0 0.034134-137.216z" fill="#5292FF" p-id="15474"></path>
</svg>