<?xml version="1.0" standalone="no"?><!DOCTYPE svg PUBLIC "-//W3C//DTD SVG 1.1//EN" "http://www.w3.org/Graphics/SVG/1.1/DTD/svg11.dtd"><svg t="1577623704858" class="icon" viewBox="0 0 1024 1024" version="1.1" xmlns="http://www.w3.org/2000/svg" p-id="3180" xmlns:xlink="http://www.w3.org/1999/xlink" width="200" height="200"><defs><style type="text/css"></style></defs><path d="M146.285714 0h731.428572a146.285714 146.285714 0 0 1 146.285714 146.285714v731.428572a146.285714 146.285714 0 0 1-146.285714 146.285714H146.285714a146.285714 146.285714 0 0 1-146.285714-146.285714V146.285714a146.285714 146.285714 0 0 1 146.285714-146.285714z m601.088 508.050286a246.052571 246.052571 0 0 0-38.180571-185.782857A246.637714 246.637714 0 0 0 550.765714 217.746286a248.173714 248.173714 0 0 0-251.977143 382.537143A246.637714 246.637714 0 0 0 457.142857 704.731429a248.393143 248.393143 0 0 0 155.282286-20.48 39.789714 39.789714 0 0 0 3.145143 5.632l70.656 104.301714a35.766857 35.766857 0 0 0 49.810285 9.581714 35.986286 35.986286 0 0 0 9.581715-49.737143L675.108571 649.654857a35.620571 35.620571 0 0 0-4.169142-5.12 245.174857 245.174857 0 0 0 76.507428-136.557714z m-94.866285-64.438857l-27.355429-21.430858a24.722286 24.722286 0 0 0-15.213714-6.802285c-1.170286-0.073143-2.267429-0.219429-3.510857-0.073143h-0.146286a27.355429 27.355429 0 0 0-14.848 4.169143 16.822857 16.822857 0 0 0-8.118857 11.629714l-24.356572 57.197714-39.350857-122.148571c-2.706286-7.899429-11.922286-13.385143-22.528-13.385143h-0.731428c-9.508571 0-17.846857 4.242286-21.430858 10.971429l-0.146285 0.146285-51.712 121.417143-47.030857-36.278857a26.697143 26.697143 0 0 0-16.310858-5.193143h-31.012571a176.347429 176.347429 0 0 1 350.72-0.219428h-26.916571z m-302.592 36.278857l66.486857 51.346285c4.388571 3.437714 10.24 5.193143 16.457143 5.193143h0.731428c9.289143 0 17.627429-4.242286 21.211429-10.971428l0.146285-0.146286 38.765715-90.989714 39.497143 122.88c2.633143 7.899429 11.922286 13.385143 22.454857 13.385143h0.512c11.117714 0 20.626286-6.070857 22.674285-14.555429l37.814858-89.014857 9.216 7.241143a28.672 28.672 0 0 0 17.261714 5.558857h36.059428a176.274286 176.274286 0 0 1-320.950857 80.457143 175.396571 175.396571 0 0 1-29.403428-80.310857l21.065143-0.073143z" p-id="3181" data-spm-anchor-id="a313x.7781069.0.i2" class="selected"></path></svg>