<?xml version="1.0" standalone="no"?><!DOCTYPE svg PUBLIC "-//W3C//DTD SVG 1.1//EN" "http://www.w3.org/Graphics/SVG/1.1/DTD/svg11.dtd"><svg t="1619408250669" class="icon" viewBox="0 0 1024 1024" version="1.1" xmlns="http://www.w3.org/2000/svg" p-id="2224" xmlns:xlink="http://www.w3.org/1999/xlink" width="200" height="200"><defs><style type="text/css"></style></defs><path d="M382.50674 607.393627l188.352809 0c17.34197 0 31.381731 13.954827 31.381731 31.197536s-14.039761 31.185256-31.381731 31.185256L382.50674 669.77642c-17.35425 0-31.394011-13.942547-31.394011-31.185256S365.152491 607.393627 382.50674 607.393627zM382.50674 482.614739 633.635291 482.614739c17.35425 0 31.394011 13.953803 31.394011 31.197536s-14.039761 31.197536-31.394011 31.197536L382.50674 545.009811c-17.35425 0-31.394011-13.953803-31.394011-31.197536S365.152491 482.614739 382.50674 482.614739zM759.199055 700.973956c-17.34197 0-31.394011-13.954827-31.394011-31.197536L727.805044 420.230923l-439.46908 0 0 374.324384c0 17.219173 14.06432 31.197536 31.381731 31.197536l376.704594 0c17.317411 0 31.381731-13.979386 31.381731-31.197536 0-17.243733 14.052041-31.197536 31.394011-31.197536 17.35425 0 31.394011 13.954827 31.394011 31.197536 0 51.607378-42.243103 93.581352-94.169753 93.581352L319.718719 888.136659c-51.92665 0-94.169753-41.97295-94.169753-93.581352L225.548966 295.452036c0-51.595099 42.243103-93.581352 94.169753-93.581352l31.394011 0 0-31.185256c0-17.243733 14.039761-31.197536 31.394011-31.197536 17.35425 0 31.394011 13.953803 31.394011 31.197536l0 31.185256 62.775742 0 0-31.185256c0-17.243733 14.039761-31.197536 31.394011-31.197536 17.35425 0 31.394011 13.953803 31.394011 31.197536l0 31.185256 62.775742 0 0-31.185256c0-17.243733 14.039761-31.197536 31.394011-31.197536 17.35425 0 31.394011 13.953803 31.394011 31.197536l0 31.185256 31.394011 0c51.92665 0 94.169753 41.98523 94.169753 93.581352l0 374.324384C790.594089 687.020152 776.553305 700.973956 759.199055 700.973956zM727.805044 295.452036c0-17.206894-14.06432-31.185256-31.381731-31.185256l-31.394011 0 0 31.185256c0 17.243733-14.039761 31.197536-31.394011 31.197536-17.35425 0-31.394011-13.953803-31.394011-31.197536l0-31.185256-62.775742 0 0 31.185256c0 17.243733-14.039761 31.197536-31.394011 31.197536-17.35425 0-31.394011-13.953803-31.394011-31.197536l0-31.185256L413.900751 264.266779l0 31.185256c0 17.243733-14.039761 31.197536-31.394011 31.197536-17.35425 0-31.394011-13.953803-31.394011-31.197536l0-31.185256-31.394011 0c-17.317411 0-31.381731 13.978363-31.381731 31.185256l0 62.395072 439.46908 0L727.806067 295.452036z" p-id="2225"></path></svg>