<?xml version="1.0" standalone="no"?><!DOCTYPE svg PUBLIC "-//W3C//DTD SVG 1.1//EN" "http://www.w3.org/Graphics/SVG/1.1/DTD/svg11.dtd"><svg t="1672208637560" class="icon" viewBox="0 0 1024 1024" version="1.1" xmlns="http://www.w3.org/2000/svg" p-id="15682" xmlns:xlink="http://www.w3.org/1999/xlink" width="200" height="200"><path d="M484.4 171.4a518.98 518.98 0 0 0 116.5 205.5l5.6 5.6 63.8 77.8 34.2-91.3c5.6-19.6 13.4-39.2 19-61.6 101.2 97.5 141.9 242 106.4 378-12.7 51.3-42 97-83.4 129.9-63.9 53.4-145.3 81.1-228.5 77.8-99.5 4.4-195.6-36.9-261-112-9.6-9.2-17.7-19.8-24.1-31.4-55-81.5-63.3-185.8-21.8-275 12.5 13.1 25.8 25.4 39.8 37 7.8 8.4 16.8 14 21.8 19.6l119.8 122.1-23-168c-20.1-117.5 23.6-237.1 114.9-314z m44.8-107.5c-136.1 91.3-247.5 241.9-224 427.8-29.1-28.6-85.1-64.4-101.4-119.8C103.3 486.3 92.2 654.1 177 780.7c9.7 15.7 20.7 30.5 33 44.2 76.4 89.7 189.7 139.4 307.4 135 97 1.9 191.6-30.4 267.1-91.3 51.1-41.6 88-97.9 105.8-161.3 47.3-190.9-33.4-390.5-199.9-495-3.8 49.7-14.9 98.6-33 145C576.7 281 530.4 175 529.2 63.9z" fill="#2c2c2c" p-id="15683" data-spm-anchor-id="a313x.7781069.0.i0" class="selected"></path></svg>