<?xml version="1.0" standalone="no"?><!DOCTYPE svg PUBLIC "-//W3C//DTD SVG 1.1//EN" "http://www.w3.org/Graphics/SVG/1.1/DTD/svg11.dtd"><svg t="1577521318888" class="icon" viewBox="0 0 1024 1024" version="1.1" xmlns="http://www.w3.org/2000/svg" p-id="14424" xmlns:xlink="http://www.w3.org/1999/xlink" width="200" height="200"><defs><style type="text/css"></style></defs><path d="M832 552H192c-13.2 0-24 10.8-24 24v192c0 13.2 10.8 24 24 24h640c13.2 0 24-10.8 24-24V576c0-13.2-10.8-24-24-24z m-24 192H216V600h592v144zM443.2 402.2c0 31.5 14.7 63.4 42.6 92l1.8 1.8c5 4.3 11.3 6.4 17.5 6.4 7.5 0 14.9-3.1 20.2-9.1 9.7-10.9 8.9-27.6-1.7-37.5l-0.9-1c-9.6-9.8-25.8-29.7-25.8-52.3 0-13.1 5.5-21.3 14.6-33.4 8.7-12 20.6-28.4 20.6-51.1 0-50.3-42-89.9-43.7-91.5-4.9-4.8-11.3-7.4-18.1-7.4h-0.5c-7.3 0.1-14.1 3.2-19.3 8.6-9.8 10.7-9.2 27.7 1.3 38 7 6.5 27 29.8 27 51.9 0 4.5-3.9 10.1-10.3 18.8-10.1 13.7-25.3 34.3-25.3 65.8zM251.2 402.2c0 50.2 37.2 86.6 44.8 93.5 5 4.3 11.3 6.4 17.5 6.4 7.5 0 14.9-3.1 20.2-9.1 9.7-11 8.8-27.7-1.8-37.5l-0.9-1c-9.6-9.9-25.8-29.8-25.8-52.3 0-13.1 5.5-21.3 14.6-33.4 8.7-12 20.6-28.4 20.6-51.1 0-45.1-33.5-81.2-44.1-91.6-5.1-4.8-11.8-7.4-19-7-7.2 0.3-14 3.4-18.8 8.7-9.8 10.6-9.1 28 1.6 37.9 9.2 8.9 26.7 31.2 26.7 51.9 0 4.5-3.9 10.1-10.3 18.8-10.7 14.6-25.3 34.4-25.3 65.8zM635.2 402.2c0 31.5 14.7 63.3 42.6 92l1.8 1.9c5 4.3 11.3 6.4 17.5 6.4 7.5 0 14.9-3.1 20.2-9.1 9.7-10.9 8.9-27.6-1.7-37.5l-0.9-1c-9.6-9.8-25.8-29.7-25.8-52.3 0-13 5.5-21.3 14.6-33.4 8.7-12 20.6-28.4 20.6-51.1 0-50.3-42-89.9-43.7-91.5-4.9-4.8-11.3-7.4-18.1-7.4h-0.5c-7.3 0.1-14.1 3.2-19.3 8.6-9.8 10.7-9.2 27.7 1.3 38 7 6.5 27 29.8 27 51.9 0 4.5-3.9 10.1-10.3 18.8-10.1 13.6-25.3 34.2-25.3 65.7z" p-id="14425"></path></svg>