<?xml version="1.0" standalone="no"?><!DOCTYPE svg PUBLIC "-//W3C//DTD SVG 1.1//EN" "http://www.w3.org/Graphics/SVG/1.1/DTD/svg11.dtd"><svg t="1671001869745" class="icon" viewBox="0 0 1024 1024" version="1.1" xmlns="http://www.w3.org/2000/svg" p-id="877" xmlns:xlink="http://www.w3.org/1999/xlink" width="200" height="200"><path d="M766.08 880.896l-226.56-111.104a34.176 34.176 0 0 1 29.888-61.44l185.792 91.264 80.192-549.12-361.216 433.408v201.408a34.112 34.112 0 0 1-68.16 0V672.64a35.072 35.072 0 0 1 8.128-23.296l340.224-408.384-545.536 283.072 128.576 66.688a35.2 35.2 0 0 1 15.296 46.592 33.152 33.152 0 0 1-44.288 15.36L122.432 555.84a35.008 35.008 0 0 1-15.936-17.024 33.856 33.856 0 0 1 14.016-45.696L870.08 104.32a35.2 35.2 0 0 1 16.192-3.904c16.704-0.32 31.104 11.52 34.112 27.904a35.392 35.392 0 0 1-0.64 16.512l-103.68 710.08a34.24 34.24 0 0 1-28.864 28.992 33.408 33.408 0 0 1-21.12-3.008z" fill="#2c2c2c" p-id="878" data-spm-anchor-id="a313x.7781069.0.i0" class=""></path></svg>