<?xml version="1.0" standalone="no"?><!DOCTYPE svg PUBLIC "-//W3C//DTD SVG 1.1//EN" "http://www.w3.org/Graphics/SVG/1.1/DTD/svg11.dtd"><svg t="1672210429808" class="icon" viewBox="0 0 1024 1024" version="1.1" xmlns="http://www.w3.org/2000/svg" p-id="31237" xmlns:xlink="http://www.w3.org/1999/xlink" width="200" height="200"><path d="M555.4 901c-30 19.2-63.6 36.2-100.8 49-3.2 1-6.4 1.6-9.8 1.6s-6.6-0.6-9.8-1.6c-127.4-43.8-212.4-136.2-261.4-206-56.4-80.6-86-161-86-198.6V215.8c0-12.8 8.2-24.2 20.2-28.4L435 74c6.4-2.2 13.2-2.2 19.6 0l327 113.4c12 4.2 20.2 15.6 20.2 28.4v280.6c-19.2-9.6-39.4-16.6-60-20.8V237L444.8 134.2 147.8 237v308.2c0 19.8 22 88.4 75.2 164.2 42.4 60.6 115 140.2 222 180.2 23.4-8.8 45.2-19.4 65.4-31.4 5 6.2 10.6 12.2 16.4 18 8.8 9.4 18.4 17.6 28.6 24.8z m338.4 48.8l-86.8-86.8a191.124 191.124 0 0 1-112.2 36.4c-49 0-97.8-18.6-135.2-55.8-74.6-74.6-74.6-195.8 0-270.2 74.6-74.6 195.8-74.6 270.2 0 67.2 67.2 73.8 172.6 19.6 247.4l86.8 86.8-42.4 42.2z m-199.2-110.4c35 0 68-13.6 92.6-38.4s38.4-57.6 38.4-92.6-13.6-68-38.4-92.6-57.6-38.4-92.6-38.4c-35 0-68 13.6-92.6 38.4s-38.4 57.6-38.4 92.6 13.6 68 38.4 92.6 57.6 38.4 92.6 38.4zM451 590.8l179.2-179.2c11.8-11.8 11.8-30.8 0-42.4-11.8-11.8-30.8-11.8-42.4 0l-158 158-85.2-85.2c-11.8-11.8-30.8-11.8-42.4 0-11.8 11.8-11.8 30.8 0 42.4l106.4 106.4c5.8 5.8 13.6 8.8 21.2 8.8s15.4-3 21.2-8.8z" fill="#2c2c2c" p-id="31238" data-spm-anchor-id="a313x.7781069.0.i8" class="selected"></path></svg>