<?xml version="1.0" standalone="no"?><!DOCTYPE svg PUBLIC "-//W3C//DTD SVG 1.1//EN" "http://www.w3.org/Graphics/SVG/1.1/DTD/svg11.dtd"><svg t="1672210130963" class="icon" viewBox="0 0 1024 1024" version="1.1" xmlns="http://www.w3.org/2000/svg" p-id="5067" xmlns:xlink="http://www.w3.org/1999/xlink" width="200" height="200"><path d="M810.666667 469.333333v384H213.333333v-384h597.333334m0-85.333333H213.333333a85.333333 85.333333 0 0 0-85.333333 85.333333v384a85.333333 85.333333 0 0 0 85.333333 85.333334h597.333334a85.333333 85.333333 0 0 0 85.333333-85.333334v-384a85.333333 85.333333 0 0 0-85.333333-85.333333z" fill="#666666" p-id="5068"></path><path d="M512 170.666667a170.666667 170.666667 0 0 1 170.666667 170.666666v42.666667H341.333333V341.333333a170.666667 170.666667 0 0 1 170.666667-170.666666m0-85.333334a256 256 0 0 0-256 256v128h512V341.333333a256 256 0 0 0-256-256zM512 640a42.666667 42.666667 0 0 0-42.666667 42.666667v85.333333a42.666667 42.666667 0 0 0 85.333334 0v-85.333333a42.666667 42.666667 0 0 0-42.666667-42.666667z" fill="#666666" p-id="5069"></path><path d="M512 554.666667a85.333333 85.333333 0 1 0 85.333333 85.333333 85.333333 85.333333 0 0 0-85.333333-85.333333z" fill="#666666" p-id="5070"></path></svg>