<?xml version="1.0" standalone="no"?><!DOCTYPE svg PUBLIC "-//W3C//DTD SVG 1.1//EN" "http://www.w3.org/Graphics/SVG/1.1/DTD/svg11.dtd"><svg t="1651069837600" class="icon" viewBox="0 0 1024 1024" version="1.1" xmlns="http://www.w3.org/2000/svg" p-id="1864" xmlns:xlink="http://www.w3.org/1999/xlink" width="400" height="400"><defs><style type="text/css">@font-face { font-family: feedback-iconfont; src: url("//at.alicdn.com/t/font_1031158_u69w8yhxdu.woff2?t=1630033759944") format("woff2"), url("//at.alicdn.com/t/font_1031158_u69w8yhxdu.woff?t=1630033759944") format("woff"), url("//at.alicdn.com/t/font_1031158_u69w8yhxdu.ttf?t=1630033759944") format("truetype"); }
</style></defs><path d="M890.285686 0H133.714257C74.285686 0 25.599971 46.057143 25.599971 102.4v819.2c0 56.342857 48.685714 102.4 108.114286 102.4h756.571429c59.428571 0 108.114286-46.057143 108.114285-102.4V102.4C998.457114 46.057143 949.714257 0 890.285686 0z m31.314285 896c0 28.114286-24.571429 51.142857-54.571428 51.142857H157.028543c-30 0-54.628571-23.085714-54.628572-51.2V128C102.399971 99.885714 127.028543 76.8 157.028543 76.8h710c30 0 54.628571 23.085714 54.628571 51.2z" fill="#3088F4" p-id="1865"></path><path d="M461.999971 475.5a79.428571 79.428571 0 0 0 31.428572 6.514286 80.771429 80.771429 0 0 0 36.914286-9.028572l126.514285-77.6c24.285714-13.142857 39.085714-38.571429 39.085715-66.971428A75.714286 75.714286 0 0 0 656.857114 261.428571l-124.285714-76.342857-2.171429-1.257143a79.6 79.6 0 0 0-68.342857-2.514285 77.828571 77.828571 0 0 0-43.314285 47.314285 86.514286 86.514286 0 0 0-4.285715 26.971429v145.614286a89.314286 89.314286 0 0 0 4.285715 26.971428 77.828571 77.828571 0 0 0 43.314285 47.314286z m22.857143-219.885714a14.371429 14.371429 0 0 1 0.571429-3.771429c0.114286-0.571429 0.685714-2.057143 3.428571-3.314286a11.428571 11.428571 0 0 1 4.685715-0.914285 11.771429 11.771429 0 0 1 4.685714 0.914285l123.771428 76 2.171429 1.257143a2.985714 2.985714 0 0 1 1.6 2.628572 2.857143 2.857143 0 0 1-1.6 2.628571l-125.942857 77.257143a11.742857 11.742857 0 0 1-9.257143 0c-2.742857-1.142857-3.314286-2.742857-3.428571-3.314286a12.857143 12.857143 0 0 1-0.571429-3.657143v-145.714285zM248.057114 622.857143a38.4 38.4 0 1 0 19.2-33.257143A38.4 38.4 0 0 0 248.057114 622.857143zM767.714257 584.414286H419.599971c-23.885714 0-43.542857 17.257143-43.542857 38.4s19.542857 38.4 43.542857 38.4h348.114286c23.885714 0 43.6-17.257143 43.6-38.357143s-19.542857-38.4-43.542857-38.4zM248.057114 776.414286a38.4 38.4 0 1 0 19.2-33.257143 38.4 38.4 0 0 0-19.2 33.257143zM767.714257 738.014286H419.599971c-23.885714 0-43.542857 17.257143-43.542857 38.4s19.542857 38.4 43.542857 38.4h348.114286c23.885714 0 43.542857-17.257143 43.542857-38.4s-19.542857-38.4-43.542857-38.4z" fill="#3088F4" p-id="1866"></path></svg>