<?xml version="1.0" standalone="no"?><!DOCTYPE svg PUBLIC "-//W3C//DTD SVG 1.1//EN" "http://www.w3.org/Graphics/SVG/1.1/DTD/svg11.dtd"><svg t="1670999792997" class="icon" viewBox="0 0 1024 1024" version="1.1" xmlns="http://www.w3.org/2000/svg" p-id="40205" xmlns:xlink="http://www.w3.org/1999/xlink" width="200" height="200"><path d="M192 192m-64 0a64 64 0 1 0 128 0 64 64 0 1 0-128 0Z" p-id="40206" data-spm-anchor-id="a313x.7781069.0.i20" class="" fill="#2c2c2c"></path><path d="M192 512m-64 0a64 64 0 1 0 128 0 64 64 0 1 0-128 0Z" p-id="40207" data-spm-anchor-id="a313x.7781069.0.i18" class="" fill="#2c2c2c"></path><path d="M192 832m-64 0a64 64 0 1 0 128 0 64 64 0 1 0-128 0Z" p-id="40208" data-spm-anchor-id="a313x.7781069.0.i19" class="" fill="#2c2c2c"></path><path d="M864 160H352c-17.7 0-32 14.3-32 32s14.3 32 32 32h512c17.7 0 32-14.3 32-32s-14.3-32-32-32zM864 480H352c-17.7 0-32 14.3-32 32s14.3 32 32 32h512c17.7 0 32-14.3 32-32s-14.3-32-32-32zM864 800H352c-17.7 0-32 14.3-32 32s14.3 32 32 32h512c17.7 0 32-14.3 32-32s-14.3-32-32-32z" p-id="40209" data-spm-anchor-id="a313x.7781069.0.i21" class="" fill="#2c2c2c"></path></svg>