<?xml version="1.0" standalone="no"?><!DOCTYPE svg PUBLIC "-//W3C//DTD SVG 1.1//EN" "http://www.w3.org/Graphics/SVG/1.1/DTD/svg11.dtd"><svg t="1577523329645" class="icon" viewBox="0 0 1024 1024" version="1.1" xmlns="http://www.w3.org/2000/svg" p-id="16905" xmlns:xlink="http://www.w3.org/1999/xlink" width="200" height="200"><defs><style type="text/css"></style></defs><path d="M825.6 990.4H198.4c-89.6 0-163.2-73.6-163.2-163.2V198.4c0-89.6 73.6-163.2 163.2-163.2h628.8c89.6 0 163.2 73.6 163.2 163.2v628.8c-1.6 89.6-73.6 163.2-164.8 163.2z m-627.2-896C140.8 94.4 96 140.8 96 196.8v628.8c0 57.6 46.4 102.4 102.4 102.4h628.8c57.6 0 102.4-46.4 102.4-102.4V198.4c0-57.6-46.4-102.4-102.4-102.4l-628.8-1.6z" p-id="16906" fill="#d81e06"></path><path d="M761.6 337.6H264c-16 0-28.8-12.8-28.8-28.8s12.8-28.8 28.8-28.8h497.6c16 0 28.8 12.8 28.8 28.8s-12.8 28.8-28.8 28.8z m0 196.8H264c-16 0-28.8-12.8-28.8-28.8s12.8-28.8 28.8-28.8h497.6c16 0 28.8 12.8 28.8 28.8s-12.8 28.8-28.8 28.8z m0 196.8H264c-16 0-28.8-12.8-28.8-28.8s12.8-28.8 28.8-28.8h497.6c16 0 28.8 12.8 28.8 28.8s-12.8 28.8-28.8 28.8z" p-id="16907" fill="#d81e06"></path><path d="M236.8 702.4c0 43.2 35.2 78.4 78.4 78.4s78.4-35.2 78.4-78.4-35.2-78.4-78.4-78.4-78.4 35.2-78.4 78.4zM569.6 505.6c0 43.2 35.2 78.4 78.4 78.4s78.4-35.2 78.4-78.4-35.2-78.4-78.4-78.4-78.4 35.2-78.4 78.4zM358.4 308.8c0 43.2 35.2 78.4 78.4 78.4s78.4-35.2 78.4-78.4-35.2-78.4-78.4-78.4-78.4 35.2-78.4 78.4z" p-id="16908" fill="#d81e06"></path></svg>