<?xml version="1.0" standalone="no"?><!DOCTYPE svg PUBLIC "-//W3C//DTD SVG 1.1//EN" "http://www.w3.org/Graphics/SVG/1.1/DTD/svg11.dtd"><svg t="1671000044045" class="icon" viewBox="0 0 1024 1024" version="1.1" xmlns="http://www.w3.org/2000/svg" p-id="52570" data-spm-anchor-id="a313x.7781069.0.i29" xmlns:xlink="http://www.w3.org/1999/xlink" width="200" height="200"><path d="M704 96c70.692 0 128 60.167 128 134.387v630.405c0 37.11-28.654 67.193-64 67.193-9.936 0-19.735-2.428-28.622-7.094L540.622 816.555c-18.018-9.459-39.226-9.459-57.244 0L284.622 920.89c-31.615 16.597-70.058 3.143-85.865-30.05-4.444-9.33-6.757-19.618-6.757-30.049V230.387C192 156.167 249.308 96 320 96h384z m0 64H320c-34.284 0-63.412 30.221-63.991 69.203l-0.009 1.184v630.405c0 0.83 0.157 1.621 0.43 2.288l0.119 0.265 197.082-103.457c36.278-19.044 79.225-19.234 115.636-0.571l1.102 0.571 197.098 103.466 0.065-0.132c0.26-0.57 0.431-1.286 0.463-2.14l0.005-0.29V230.387c0-39.157-28.785-69.77-62.963-70.378L704 160zM443.74 489.001l0.378 0.372c37.115 37.115 97.06 37.486 134.633 1.113l1.131-1.113c12.497-12.497 32.758-12.497 45.255 0 12.497 12.496 12.497 32.758 0 45.254-62.484 62.484-163.79 62.484-226.274 0-12.497-12.496-12.497-32.758 0-45.254C411.235 477 431.217 476.877 443.74 489z" fill="#2c2c2c" p-id="52571" data-spm-anchor-id="a313x.7781069.0.i28" class=""></path></svg>