<?xml version="1.0" standalone="no"?><!DOCTYPE svg PUBLIC "-//W3C//DTD SVG 1.1//EN" "http://www.w3.org/Graphics/SVG/1.1/DTD/svg11.dtd"><svg t="1672210924345" class="icon" viewBox="0 0 1024 1024" version="1.1" xmlns="http://www.w3.org/2000/svg" p-id="56957" xmlns:xlink="http://www.w3.org/1999/xlink" width="200" height="200"><path d="M266.4 978.4c-4.8 0-8.8-1.6-12-5.6-25.6-29.6-46.4-63.2-61.6-99.2-16-37.6-25.6-77.6-28.8-118.4-6.4-85.6 16.8-172 65.6-242.4 40.8-59.2 97.6-105.6 164-133.6 47.2-20 96-29.6 146.4-29.6 16.8 0 33.6 0.8 49.6 3.2 84.8 11.2 164 51.2 223.2 112.8 32 32.8 56.8 71.2 75.2 113.6 15.2 36 24.8 74.4 28 112.8 0.8 7.2-3.2 13.6-9.6 16L272 976c-1.6 2.4-4 2.4-5.6 2.4z m273.6-596.8c-46.4 0-91.2 9.6-134.4 27.2-60.8 25.6-112.8 68-149.6 122.4-44.8 64.8-65.6 144-60 222.4 3.2 37.6 12 73.6 26.4 108 12.8 29.6 28.8 56.8 48.8 81.6l612-259.2c-4-31.2-12-62.4-24.8-92-16.8-39.2-39.2-73.6-68.8-104-53.6-56-126.4-92.8-204-103.2-15.2-2.4-30.4-3.2-45.6-3.2z" fill="#303C42" p-id="56958"></path><path d="M828.8 612.8c-3.2 0-6.4-1.6-7.2-4.8-14.4-34.4-35.2-65.6-60.8-92-48-49.6-112-82.4-180.8-91.2-54.4-7.2-108.8 0-159.2 21.6-4 1.6-8.8 0-10.4-4-1.6-4 0-8.8 4-10.4 40-16.8 81.6-25.6 124.8-25.6 14.4 0 28.8 0.8 42.4 3.2 72 9.6 140 44 189.6 96 27.2 28 48.8 60.8 64 96.8 1.6 4 0 8.8-4 10.4h-2.4zM540.8 1020c-37.6 0-75.2-7.2-110.4-21.6-34.4-13.6-65.6-33.6-92-59.2-4-4-5.6-8.8-4.8-14.4 0.8-5.6 4.8-9.6 9.6-12l468-198.4c4.8-2.4 10.4-1.6 15.2 1.6 4.8 3.2 7.2 8 7.2 13.6 0 36.8-7.2 72.8-21.6 108-29.6 72.8-85.6 129.6-157.6 160-36 14.4-74.4 22.4-113.6 22.4z m-161.6-88c19.2 15.2 40.8 27.2 63.2 36.8 31.2 12.8 64.8 19.2 98.4 19.2 35.2 0 68.8-7.2 101.6-20.8 64-27.2 113.6-77.6 140-142.4 9.6-23.2 15.2-46.4 17.6-71.2l-420.8 178.4zM525.6 786.4c-36 0-68-21.6-82.4-54.4-9.6-21.6-9.6-46.4-0.8-68 8.8-22.4 26.4-39.2 48-48.8 11.2-4.8 23.2-7.2 34.4-7.2 36 0 68 21.6 82.4 54.4 9.6 21.6 9.6 46.4 0.8 68-8.8 22.4-26.4 39.2-48 48.8-11.2 4.8-22.4 7.2-34.4 7.2z m0-163.2c-9.6 0-19.2 1.6-28.8 5.6-18.4 8-32 21.6-39.2 40-7.2 18.4-7.2 38.4 0.8 56 11.2 27.2 38.4 44.8 67.2 44.8 9.6 0 19.2-1.6 28.8-5.6 18.4-8 32-21.6 39.2-40 7.2-18.4 7.2-38.4-0.8-56-11.2-27.2-38.4-44.8-67.2-44.8z m0 121.6c-19.2 0-36.8-11.2-44-28.8-4.8-12-4.8-24.8 0-36.8 4.8-12 13.6-20.8 25.6-26.4 5.6-2.4 12-4 18.4-4 19.2 0 36.8 11.2 44 28.8 10.4 24-0.8 52-25.6 62.4-6.4 3.2-12 4.8-18.4 4.8z m0-80c-4 0-8.8 0.8-12 2.4-8 3.2-13.6 9.6-16.8 17.6-3.2 8-3.2 16.8 0 24 4.8 12 16.8 19.2 29.6 19.2 4 0 8.8-0.8 12-2.4 16-7.2 24-25.6 16.8-41.6-5.6-11.2-16.8-19.2-29.6-19.2z" fill="#303C42" p-id="56959"></path><path d="M801.6 492.8c-4 0-8.8-1.6-11.2-4.8-54.4-56-127.2-92.8-204.8-103.2-4.8-0.8-8.8-3.2-12-8-2.4-4-3.2-9.6-1.6-13.6l40-107.2c1.6-4 4.8-7.2 8-8.8 4-1.6 8-1.6 12-0.8l224 83.2c8 3.2 12.8 12 9.6 20.8L816 482.4c-1.6 4.8-6.4 8.8-12 10.4h-2.4z m-192-136.8c68.8 12.8 133.6 44.8 185.6 92l35.2-94.4-192.8-72-28 74.4zM896.8 308.8c-0.8 0-1.6 0-2.4-0.8L628.8 209.6c-4-1.6-6.4-6.4-4.8-10.4l32-86.4c0.8-1.6 2.4-4 4-4.8 1.6-0.8 4-0.8 6.4 0l264.8 99.2c4 1.6 6.4 6.4 4.8 10.4L904 304c-0.8 1.6-2.4 4-4 4.8h-3.2zM641.6 197.6l250.4 93.6 26.4-72-249.6-93.6-27.2 72z" fill="#303C42" p-id="56960"></path><path d="M911.2 381.6c-5.6 0-10.4-0.8-16-3.2L571.2 257.6c-23.2-8.8-35.2-34.4-26.4-57.6l62.4-166.4C613.6 16 630.4 4 649.6 4c5.6 0 10.4 0.8 16 3.2 19.2 7.2 30.4 26.4 28.8 45.6l243.2 90.4c8-11.2 21.6-18.4 36-18.4 5.6 0 10.4 0.8 16 3.2 23.2 8.8 35.2 34.4 26.4 57.6L953.6 352c-6.4 17.6-23.2 29.6-42.4 29.6zM648.8 36c-5.6 0-10.4 3.2-12 8.8l-62.4 166.4c-2.4 6.4 0.8 14.4 8 16.8l324.8 120.8c6.4 2.4 14.4-0.8 16.8-8l62.4-166.4c2.4-6.4-0.8-14.4-8-16.8-6.4-2.4-14.4 0.8-16.8 8l-1.6 3.2c-1.6 4-4.8 7.2-8 8.8-4 1.6-8 1.6-12 0.8L669.6 77.6c-8-3.2-12.8-12-9.6-20.8l1.6-3.2c2.4-6.4-0.8-14.4-8-16.8-1.6-0.8-3.2-0.8-4.8-0.8zM180 770.4c-2.4 0-4-0.8-6.4-1.6l-146.4-64c-8-3.2-12-12.8-8-20.8l8.8-19.2c3.2-8 12.8-12 20.8-8 4.8 2.4 10.4 2.4 15.2 0 4.8-1.6 8-5.6 9.6-9.6l53.6-122.4c4-9.6 0-20.8-9.6-24.8-8-3.2-12-12.8-8-20.8l5.6-12c1.6-4 4.8-7.2 8.8-8.8 4-1.6 8-1.6 12 0l113.6 49.6c4 1.6 8 5.6 8.8 10.4 1.6 4.8 0.8 9.6-2.4 13.6-44.8 64.8-65.6 144-60 222.4 0.8 5.6-2.4 11.2-6.4 14.4-3.2 0.8-6.4 1.6-9.6 1.6zM68.8 688l94.4 41.6c-0.8-70.4 19.2-140 56-200l-60-26.4c3.2 11.2 2.4 23.2-2.4 33.6l-53.6 122.4c-5.6 12-14.4 21.6-27.2 26.4-2.4 1.6-4.8 2.4-7.2 2.4z" fill="#303C42" p-id="56961"></path><path d="M56.8 689.6c-7.2 0-13.6-1.6-20.8-4-25.6-11.2-37.6-41.6-26.4-67.2L63.2 496c8-18.4 26.4-30.4 46.4-30.4 7.2 0 13.6 1.6 20.8 4 25.6 11.2 37.6 41.6 26.4 67.2l-53.6 122.4c-5.6 12-14.4 21.6-27.2 26.4-6.4 3.2-12.8 4-19.2 4z m53.6-192c-7.2 0-14.4 4.8-17.6 11.2L39.2 631.2c-4 9.6 0 20.8 9.6 24.8 2.4 0.8 4.8 1.6 8 1.6 2.4 0 4.8-0.8 7.2-1.6 4.8-1.6 8-5.6 9.6-9.6l53.6-122.4c4-9.6 0-20.8-9.6-24.8-2.4-0.8-4.8-1.6-7.2-1.6z" fill="#303C42" p-id="56962"></path></svg>